<?xml version="1.0" encoding="UTF-8"?>
<svg xmlns="http://www.w3.org/2000/svg" width="900" height="1200" viewBox="0 0 900 1200">
  <style>
    .box { fill: #fff; stroke: #2563eb; stroke-width:2px; rx:6; }
    .alt { fill:#f0f7ff; }
    .text { font-family: Arial, sans-serif; font-size:12px; fill:#111; }
    .title { font-size:15px; font-weight:700; fill:#0b3b75; }
    .arrow { stroke:#333; stroke-width:2px; fill:none; marker-end: url(#arrow); }
  </style>
  <defs>
    <marker id="arrow" markerWidth="10" markerHeight="7" refX="10" refY="3.5" orient="auto">
      <polygon points="0 0, 10 3.5, 0 7" fill="#333" />
    </marker>
  </defs>
  <text x="450" y="26" text-anchor="middle" class="title">SystemInit Detailed Flow</text>

  <g transform="translate(40,60)">
    <rect x="270" y="10" width="300" height="28" class="box"/>
    <text x="450" y="24" text-anchor="middle" dominant-baseline="middle" class="text">SystemInit()</text>
    <path class="arrow" d="M450 38 L450 100" />

    <rect x="270" y="100" width="300" height="28" class="box alt"/>
    <text x="450" y="114" text-anchor="middle" dominant-baseline="middle" class="text">Enable MainOSC (MOSCE = 0x01)</text>
    <path class="arrow" d="M450 128 L450 200" />

    <rect x="270" y="200" width="300" height="28" class="box"/>
    <text x="450" y="214" text-anchor="middle" dominant-baseline="middle" class="text">Wait for MOSC stable (poll MOSCS.ACT)</text>
    <path class="arrow" d="M450 228 L450 310" />

    <rect x="270" y="310" width="300" height="28" class="box alt"/>
    <text x="450" y="324" text-anchor="middle" dominant-baseline="middle" class="text">Configure PLL (PLLC0) and enable</text>
    <text x="450" y="362" text-anchor="middle" class="text" style="font-size:12px;">Set multiplier/dividers as required</text>
    <path class="arrow" d="M450 338 L450 420" />

    <rect x="270" y="420" width="300" height="28" class="box"/>
    <text x="450" y="434" text-anchor="middle" dominant-baseline="middle" class="text">Wait for PLL stable (poll PLLS.ACT)</text>
    <path class="arrow" d="M450 448 L450 520" />

    <rect x="270" y="520" width="300" height="28" class="box alt"/>
    <text x="450" y="534" text-anchor="middle" dominant-baseline="middle" class="text">
      <tspan x="450">Configure clock dividers & selectors</tspan>
      <tspan x="450" dy="14">(CKSC registers)</tspan>
    </text>
    <text x="450" y="572" text-anchor="middle" class="text" style="font-size:12px;">Set CPU / peripheral sources and wait for ACT</text>
    <path class="arrow" d="M450 548 L450 640" />

    <rect x="270" y="640" width="300" height="28" class="box"/>
    <text x="450" y="654" text-anchor="middle" dominant-baseline="middle" class="text">Optional: Disable/refresh Watchdog, Unlock protected regs</text>
    <path class="arrow" d="M450 668 L450 740" />

    <rect x="270" y="740" width="300" height="28" class="box alt"/>
    <text x="450" y="754" text-anchor="middle" dominant-baseline="middle" class="text">Initialize Interrupt controller (mask, set priority lowest)</text>
    <text x="450" y="792" text-anchor="middle" class="text" style="font-size:12px;">for i in 0..511: EIC[i] = masked, priority = 15</text>
    <path class="arrow" d="M450 768 L450 860" />

    <rect x="270" y="860" width="300" height="28" class="box"/>
    <text x="450" y="874" text-anchor="middle" dominant-baseline="middle" class="text">
      <tspan x="450">Update global clock vars:</tspan>
      <tspan x="450" dy="14">g_system_clock, g_peripheral_clock</tspan>
    </text>
    <path class="arrow" d="M450 888 L450 960" />

    <rect x="270" y="960" width="300" height="28" class="box alt"/>
    <text x="450" y="974" text-anchor="middle" dominant-baseline="middle" class="text">Return to caller</text>
  </g>
</svg>